<?xml version="1.0" encoding="iso-8859-1"?>
<!-- Generator: Adobe Illustrator 21.0.0, SVG Export Plug-In . SVG Version: 6.00 Build 0)  -->
<svg xmlns="http://www.w3.org/2000/svg" xmlns:xlink="http://www.w3.org/1999/xlink" version="1.1" id="Capa_1" x="0px" y="0px" viewBox="0 0 512 512" style="enable-background:new 0 0 512 512;" xml:space="preserve" width="512" height="512">
<g>
	<path style="fill:#F2F2FC;" d="M481,15v422c0,41.4-33.6,75-75,75H76l-1.5-174.2L121,240V15c0-8.401,6.599-15,15-15h330   C474.401,0,481,6.599,481,15z"/>
	<path style="fill:#A3A3D1;" d="M76,512L76,512c-24.853,0-45-20.147-45-45V240h90v227C121,491.853,100.853,512,76,512z"/>
	<path style="fill:#D8D8FC;" d="M481,15v422c0,41.4-33.6,75-75,75H301V0h165C474.401,0,481,6.599,481,15z"/>
	<path style="fill:#737EE6;" d="M376.015,270c-4.57,0-9.067-2.065-12.012-6.006l-53.994-71.997   c-4.98-6.621-3.633-16.025,3.003-20.991c6.592-4.98,16.011-3.633,20.991,3.003l53.994,71.997c4.98,6.621,3.633,16.025-3.003,20.991   C382.299,269.019,379.149,270,376.015,270z"/>
	<path style="fill:#47568C;" d="M301,61.5c-4.799-0.901-9.901-1.5-15-1.5c-41.4,0-75,33.6-75,75s33.6,75,75,75   c5.099,0,10.201-0.601,15-1.5c34.2-6.901,60-37.202,60-73.5C361,98.699,335.2,68.399,301,61.5z"/>
	<path style="fill:#2C3B73;" d="M361,135c0,36.299-25.8,66.599-60,73.5V61.5C335.2,68.399,361,98.699,361,135z"/>
	<path style="fill:#9BFCFF;" d="M331,135c0,19.499-12.599,36.299-30,42.299c-4.799,1.8-9.6,2.701-15,2.701   c-24.901,0-45-20.101-45-45c0-24.901,20.099-45,45-45c5.4,0,10.201,0.899,15,2.699C318.401,98.699,331,115.499,331,135z"/>
	<path style="fill:#61729B;" d="M421,315c0,8.399-6.599,15-15,15H196c-8.401,0-15-6.601-15-15c0-8.401,6.599-15,15-15h210   C414.401,300,421,306.599,421,315z"/>
	<path style="fill:#61729B;" d="M421,377c0,8.399-6.599,15-15,15H196c-8.401,0-15-6.601-15-15c0-8.401,6.599-15,15-15h210   C414.401,362,421,368.599,421,377z"/>
	<path style="fill:#61729B;" d="M421,437c0,8.399-6.599,15-15,15H196c-8.401,0-15-6.601-15-15c0-8.401,6.599-15,15-15h210   C414.401,422,421,428.599,421,437z"/>
	<path style="fill:#76E2F8;" d="M301,177.299v-84.6c17.401,6,30,22.8,30,42.301C331,154.499,318.401,171.299,301,177.299z"/>
	<path style="fill:#47568C;" d="M421,437c0,8.399-6.599,15-15,15H301v-30h105C414.401,422,421,428.599,421,437z"/>
	<path style="fill:#47568C;" d="M421,377c0,8.399-6.599,15-15,15H301v-30h105C414.401,362,421,368.599,421,377z"/>
	<path style="fill:#47568C;" d="M406,330H301v-30h105c8.401,0,15,6.599,15,15C421,323.399,414.401,330,406,330z"/>
</g>















</svg>
